<?xml version="1.0" encoding="UTF-8" standalone="no"?>
<svg
   xmlns:dc="http://purl.org/dc/elements/1.1/"
   xmlns:cc="http://creativecommons.org/ns#"
   xmlns:rdf="http://www.w3.org/1999/02/22-rdf-syntax-ns#"
   xmlns:svg="http://www.w3.org/2000/svg"
   xmlns="http://www.w3.org/2000/svg"
   viewBox="0 0 2560 2560"
   height="2560"
   width="2560"
   xml:space="preserve"
   id="svg2"
   version="1.1"><metadata
     id="metadata8"><rdf:RDF><cc:Work
         rdf:about=""><dc:format>image/svg+xml</dc:format><dc:type
           rdf:resource="http://purl.org/dc/dcmitype/StillImage" /></cc:Work></rdf:RDF></metadata><defs
     id="defs6"><clipPath
       id="clipPath18"
       clipPathUnits="userSpaceOnUse"><path
         id="path16"
         d="M 0,1920 H 1920 V 0 H 0 Z" /></clipPath></defs><g
     transform="matrix(1.3333333,0,0,-1.3333333,0,2560)"
     id="g10"><g
       id="g12"><g
         clip-path="url(#clipPath18)"
         id="g14"><g
           transform="translate(156.9302,579.7402)"
           id="g20"><path
             id="path22"
             style="fill:#242827;fill-opacity:1;fill-rule:nonzero;stroke:none"
             d="M 0,0 -96.87,-192.36 H 118.61 L 214.09,0 Z M 949.73,28.46 743.42,440.99 627.53,672.8 481.62,964.64 95.43,192.359 H 312.44 L 481.62,532.23 545.3,405.42 652.32,192.359 747.74,1.47 802.69,-106.82 c 61.04,-42.22 127.519,-70.85 200.17,-85.54 h 57.29 z" /></g><g
           transform="translate(1551.8799,680.7998)"
           id="g24"><path
             id="path26"
             style="fill:#242827;fill-opacity:1;fill-rule:nonzero;stroke:none"
             d="m 0,0 c -75.24,-75.189 -166.32,-111.359 -271.91,-111.359 -62.67,0 -120.68,12.71 -173.31,38.759 -36.03,17.871 -69.44,41.97 -100.08,72.6 -75.18,75.19 -111.33,167.79 -111.33,273.33 0,22.86 1.7,45.08 5.1,66.6 12.41,77.71 47.34,146.4 106.23,205.29 76.68,76.67 167.79,112.82 273.39,112.82 C -166.32,658.04 -75.24,620.42 0,545.22 75.2,470.03 112.8,378.91 112.8,273.33 112.8,167.79 76.59,76.67 0,0 m 135.92,681.2 c -112.81,112.78 -247.34,170.62 -407.83,170.62 -160.55,0 -296.47,-57.84 -407.83,-170.62 -34.39,-34.32 -63.62,-70.84 -87.68,-109.46 -49.82,-79.95 -77.47,-169.07 -82.23,-267.38 l 107.02,-213.06 95.42,-190.89 54.95,-108.29 c 61.04,-42.22 127.52,-70.849 200.17,-85.54 38.361,-7.82 78.38,-11.76 120.18,-11.76 160.49,0 295.02,57.85 407.83,170.67 114.32,111.35 172.141,247.33 172.141,407.84 0,159.08 -57.821,295.07 -172.141,407.87" /></g></g></g></g></svg>